<svg width="12" height="34" viewBox="0 0 12 34" version="1.1" xmlns="http://www.w3.org/2000/svg" xmlns:xlink="http://www.w3.org/1999/xlink">
    <title>male</title>
    <desc>Created using Figma</desc>
    <g id="Canvas" transform="translate(3128 822)">
        <g id="male">
            <use xlink:href="#path0_fill" transform="translate(-3128 -822)" fill="#003267"/>
        </g>
    </g>
    <defs>
        <path id="path0_fill" d="M 6 0C 6.90931 7.54952e-16 7.78138 0.358213 8.42437 0.995837C 9.06735 1.63346 9.42857 2.49826 9.42857 3.4C 9.42857 4.30174 9.06735 5.16654 8.42437 5.80416C 7.78138 6.44179 6.90931 6.8 6 6.8C 5.09069 6.8 4.21862 6.44179 3.57563 5.80416C 2.93265 5.16654 2.57143 4.30174 2.57143 3.4C 2.57143 2.49826 2.93265 1.63346 3.57563 0.995837C 4.21862 0.358213 5.09069 7.54952e-16 6 0ZM 3.42857 8.5L 8.57143 8.5C 9.48074 8.5 10.3528 8.85821 10.9958 9.49584C 11.6388 10.1335 12 10.9983 12 11.9L 12 21.25L 9.42857 21.25L 9.42857 34L 2.57143 34L 2.57143 21.25L 0 21.25L 0 11.9C 0 10.9983 0.361224 10.1335 1.00421 9.49584C 1.64719 8.85821 2.51926 8.5 3.42857 8.5Z"/>
    </defs>
</svg>
