<svg width="16" height="34" viewBox="0 0 16 34" version="1.1" xmlns="http://www.w3.org/2000/svg" xmlns:xlink="http://www.w3.org/1999/xlink">
    <title>female_select</title>
    <desc>Created using Figma</desc>
    <g id="Canvas" transform="translate(3106 822)">
        <g id="female_select">
            <use xlink:href="#path0_fill" transform="translate(-3106 -822)" fill="#003267"/>
        </g>
    </g>
    <defs>
        <path id="path0_fill" d="M 8 0C 8.94299 7.54952e-16 9.84736 0.358213 10.5142 0.995837C 11.181 1.63346 11.5556 2.49826 11.5556 3.4C 11.5556 4.30174 11.181 5.16654 10.5142 5.80416C 9.84736 6.44179 8.94299 6.8 8 6.8C 7.05701 6.8 6.15264 6.44179 5.48584 5.80416C 4.81905 5.16654 4.44444 4.30174 4.44444 3.4C 4.44444 2.49826 4.81905 1.63346 5.48584 0.995837C 6.15264 0.358213 7.05701 7.54952e-16 8 0ZM 5.33333 34L 5.33333 23.8L 0 23.8L 4.60444 10.897C 5.04889 9.503 6.4 8.5 8 8.5C 9.6 8.5 10.9511 9.503 11.3956 10.897L 16 23.8L 10.6667 23.8L 10.6667 34L 5.33333 34Z"/>
    </defs>
</svg>
